<svg width="256" height="256" viewBox="0 0 256 256" fill="none" xmlns="http://www.w3.org/2000/svg">
<rect x="43.9869" y="61.7764" width="92.9852" height="92.9852" rx="20" transform="rotate(-30 43.9869 61.7764)" fill="#ADB9E3"/>
<rect x="63.0088" y="60.2885" width="100.577" height="100.577" rx="20" transform="rotate(-30 63.0088 60.2885)" fill="url(#paint0_linear_5_375)"/>
<path d="M45.1952 239.097L9.59435 73.0969C8.25919 66.8714 13.0049 61 19.372 61H236.93C243.198 61 247.921 66.7007 246.755 72.8596L215.337 238.86C214.443 243.582 210.317 247 205.511 247H54.9729C50.2581 247 46.1839 243.707 45.1952 239.097Z" fill="#525EC6"/>
<path d="M158.842 178.403C163.412 181.587 166.733 187.02 166.733 193.188C166.733 203.029 158.753 211 148.9 211C139.047 211 131.067 203.029 131.067 193.188C131.067 191.317 131.356 189.491 131.891 187.799L99.4348 159.433C97.1387 160.524 94.5551 161.125 91.8333 161.125C81.9849 161.125 74 153.154 74 143.312C74 133.471 81.9849 125.5 91.8333 125.5C96.7152 125.5 101.129 127.459 104.361 130.643L145.333 114.26C145.623 104.677 153.492 97 163.167 97C173.02 97 181 104.976 181 114.812C181 123.251 175.137 130.309 167.268 132.157L158.842 178.403ZM108.842 148.701L141.299 177.067C142.413 176.555 143.572 176.132 144.798 175.843L153.225 129.597C152.288 128.973 151.441 128.261 150.639 127.482L109.466 143.869C109.6 145.539 109.332 147.164 108.842 148.701Z" fill="white"/>
<defs>
<linearGradient id="paint0_linear_5_375" x1="113.297" y1="60.2885" x2="113.297" y2="160.866" gradientUnits="userSpaceOnUse">
<stop stop-color="#59A96A"/>
<stop offset="1" stop-color="#ADB9E3"/>
</linearGradient>
</defs>
</svg>
