<svg width="1em" height="1.3333em" viewBox="0 0 60 80" fill="none" xmlns="http://www.w3.org/2000/svg">
<path d="M44.1406 10H50C55.5156 10 60 14.4766 60 20V70C60 75.5156 55.5156 80 50 80H10C4.47656 80 0 75.5156 0 70V20C0 14.4766 4.47656 10 10 10H15.8594C17.9062 4.17344 23.4688 0 30 0C36.5312 0 42.0938 4.17344 44.1406 10ZM30 20C32.7656 20 35 17.7656 35 15C35 12.2391 32.7656 10 30 10C27.2344 10 25 12.2391 25 15C25 17.7656 27.2344 20 30 20ZM16.4688 36.0156C15.7656 37.9688 16.7969 40.1094 18.6094 40.8125C20.7031 41.5 22.8438 40.4844 23.5312 38.5312L23.6094 38.3281C23.7813 37.8281 24.25 37.5 24.7812 37.5H33.8906C35.1875 37.5 36.25 38.5625 36.25 39.8594C36.25 40.7188 35.7969 41.5 35.0625 41.9219L28.1406 45.8906C26.9688 46.5625 26.25 47.7969 26.25 49.1406V51.25C26.25 53.3281 27.9219 55 30 55C32.0469 55 33.7188 53.3594 33.6094 51.3125L38.7969 48.4219C41.8594 46.6719 43.75 43.4062 43.75 39.8594C43.75 34.4219 39.3281 30 33.8906 30H24.7812C21.0781 30 17.7812 32.3281 16.5312 35.8281L16.4688 36.0156ZM30 60C27.2344 60 25 62.2344 25 65C25 67.7656 27.2344 70 30 70C32.7656 70 35 67.7656 35 65C35 62.2344 32.7656 60 30 60Z" fill="currentColor"/>
</svg>
