<svg width="1em" height="1em" viewBox="0 0 20 20" fill="none" xmlns="http://www.w3.org/2000/svg">
<path d="M19.9843 1.43982L17.4843 17.6547C17.4257 18.0349 17.1962 18.3664 16.8605 18.5551C16.6713 18.6613 16.4593 18.7151 16.248 18.7151C16.0844 18.7151 15.923 18.6832 15.7679 18.6185L10.9788 16.6224L8.99213 19.6025C8.83978 19.8633 8.58588 20 8.31244 20C7.86322 20 7.49994 19.6367 7.49994 19.1875V15.4304C7.49994 15.1525 7.5926 14.8824 7.7633 14.6633L16.2499 3.74997L4.77728 14.0742L0.76908 12.4023C0.329549 12.2187 0.0316776 11.8047 0.00238073 11.2929C-0.0269161 10.7812 0.216014 10.3664 0.629725 10.1301L18.1297 0.165206C18.5473 -0.0734265 19.0625 -0.0514733 19.4578 0.220128C19.8532 0.49173 20.0585 0.965597 19.9843 1.43982Z" fill="currentColor"/>
</svg>
