<svg width="200" height="200" viewBox="0 0 200 200" fill="none" xmlns="http://www.w3.org/2000/svg">
<path fill-rule="evenodd" clip-rule="evenodd" d="M11.1795 55.8959L37.7379 179.727C38.5227 183.386 41.7568 186 45.4993 186H157.878C161.692 186 164.968 183.286 165.677 179.538L189.115 55.7076C190.041 50.8186 186.292 46.2935 181.316 46.2935H18.9409C13.8867 46.2935 10.1197 50.9541 11.1795 55.8959ZM129.299 145.616C129.299 140.978 126.786 136.892 123.328 134.498L129.704 99.7209C135.659 98.3311 140.095 93.0233 140.095 86.6774C140.095 79.2799 134.056 73.2822 126.601 73.2822C119.28 73.2822 113.325 79.0555 113.106 86.2621L82.1028 98.5823C79.657 96.1879 76.3171 94.7145 72.623 94.7145C65.1707 94.7145 59.1286 100.709 59.1286 108.11C59.1286 115.51 65.1707 121.505 72.623 121.505C74.6826 121.505 76.6376 121.053 78.375 120.232L102.935 141.564C102.53 142.837 102.311 144.21 102.311 145.616C102.311 153.017 108.349 159.011 115.805 159.011C123.261 159.011 129.299 153.017 129.299 145.616ZM110.053 133.493L85.4933 112.162C85.8644 111.006 86.0668 109.784 85.9656 108.528L117.121 96.2047C117.728 96.7907 118.369 97.3265 119.077 97.7953L112.701 132.573C111.774 132.79 110.896 133.108 110.053 133.493Z" fill="white"/>
<path fill-rule="evenodd" clip-rule="evenodd" d="M57.9781 46.2935H138.615L124.555 21.9405C120.171 14.3473 110.462 11.7456 102.868 16.1296L64.9395 38.0278C61.5919 39.9606 59.2145 42.9283 57.9781 46.2935Z" fill="white"/>
<path fill-rule="evenodd" clip-rule="evenodd" d="M117.555 47.0872L105.328 25.9094C100.944 18.3162 91.2351 15.7145 83.6418 20.0985L50.6515 39.1454C47.6798 40.8611 45.4726 43.3925 44.1495 46.2935C44.0302 46.5552 43.918 46.8199 43.8131 47.0872H117.555ZM45.0268 46.2935H116.181L104.641 26.3063C100.476 19.0927 91.2523 16.6211 84.0387 20.7859L51.0484 39.8329C48.3378 41.3978 46.2977 43.6757 45.0268 46.2935Z" fill="white"/>
</svg>
